<?xml version="1.0" encoding="utf-8"?>
<!-- Generator: Adobe Illustrator 23.0.1, SVG Export Plug-In . SVG Version: 6.00 Build 0)  -->
<svg version="1.1" id="Layer_1" xmlns="http://www.w3.org/2000/svg" xmlns:xlink="http://www.w3.org/1999/xlink" x="0px" y="0px"
	 viewBox="0 0 36.13 35.34" style="enable-background:new 0 0 36.13 35.34;" xml:space="preserve">
<style type="text/css">
	.st0{fill:none;stroke:#1A1A1A;stroke-width:1.44;stroke-linecap:round;stroke-linejoin:round;stroke-miterlimit:22.9256;}
</style>
<path class="st0" d="M26.71,29.8c-2.71,2.69-6.43,4.35-10.55,4.35c-8.26,0-14.96-6.7-14.96-14.96c0-8.26,6.7-14.96,14.96-14.96
	v13.41v1.41h0l0,0.15L26.71,29.8L26.71,29.8z M34.93,18.76l0,0.15c0,4.15-1.69,7.9-4.42,10.61L19.97,18.91l0-0.15H34.93L34.93,18.76
	z M18.83,1.19c8.21,0,14.88,6.62,14.96,14.82H18.83L18.83,1.19L18.83,1.19L18.83,1.19z M15.15,4.26L1.23,18.17 M16.16,8.6L1.7,23.05
	 M16.16,13.95L3.29,26.82 M16.21,19.24L5.63,29.82 M18.88,21.92L8.66,32.14 M21.54,24.61l-9.09,9.09 M24.21,27.29l-6.82,6.82"/>
</svg>
