<?xml version="1.0" encoding="utf-8"?>
<!-- Generator: Adobe Illustrator 23.0.1, SVG Export Plug-In . SVG Version: 6.00 Build 0)  -->
<svg version="1.1" id="Capa_1" xmlns="http://www.w3.org/2000/svg" xmlns:xlink="http://www.w3.org/1999/xlink" x="0px" y="0px"
	 viewBox="0 0 65.09 65.09" style="enable-background:new 0 0 65.09 65.09;" xml:space="preserve">
<style type="text/css">
	.st0{fill:none;stroke:#464646;stroke-width:2;stroke-linecap:round;stroke-linejoin:round;stroke-miterlimit:10;}
	.st1{fill:none;stroke:#464646;stroke-width:2;stroke-linecap:square;stroke-linejoin:round;stroke-miterlimit:10;}
</style>
<g id="call_center_2_">
	<g>
		<path class="st0" d="M35.55,39.55h-5c-1.1,0-2-0.9-2-2l0,0c0-1.1,0.9-2,2-2h5c1.1,0,2,0.9,2,2l0,0
			C37.55,38.65,36.65,39.55,35.55,39.55z"/>
		<path class="st0" d="M27.55,37.55h-5c-3.31,0-6-2.69-6-6v-5"/>
		<path class="st0" d="M16.55,32.55c-3,0-5-2.02-5-4.5v-3c0-2.47,2-4.5,5-4.5"/>
	</g>
	<g>
		<path class="st1" d="M63.55,63.55V63.4c0-5.41-3.12-10.34-8.01-12.65l-10.99-5.21c-3.15,3.05-7.3,5-12,5c-4.7,0-7.85-1.95-11-5
			L9.55,50.75c-4.89,2.32-8.01,7.24-8.01,12.65v0.14"/>
		<polyline class="st0" points="21.55,45.55 14.55,58.55 24.55,56.55 		"/>
		<polyline class="st0" points="44.55,45.55 50.55,58.55 40.55,56.55 		"/>
	</g>
	<g>
		<path class="st0" d="M16.55,26.55v-9c0-9,6.89-16,16-16c9.11,0,17,7,17,16v15c0,0-1,12,4,17"/>
		<path class="st1" d="M45.55,22.55v7.5c0,6.88-5.62,14.5-12.5,14.5l0,0c-6.88,0-12.5-7.62-12.5-14.5v-7.5"/>
		<polyline class="st1" points="45.55,18.55 39.55,18.55 39.55,12.55 34.55,18.55 20.55,18.55 		"/>
	</g>
</g>
</svg>
