<?xml version="1.0" encoding="utf-8"?>
<!-- Generator: Adobe Illustrator 23.0.1, SVG Export Plug-In . SVG Version: 6.00 Build 0)  -->
<svg version="1.1" id="Layer_1" xmlns="http://www.w3.org/2000/svg" xmlns:xlink="http://www.w3.org/1999/xlink" x="0px" y="0px"
	 viewBox="0 0 36.13 35.34" style="enable-background:new 0 0 36.13 35.34;" xml:space="preserve">
<style type="text/css">
	.st0{fill:#3A3637;}
</style>
<path class="st0" d="M33.56,15.6l-3.64-3.64c-0.22-0.22-0.56-0.22-0.77,0l-3.1,3.08V6.05c0-0.31-0.24-0.54-0.54-0.54h-4.5
	c-0.51-0.94-1.37-1.71-2.47-2.18c-0.36-1.89-1.99-3.27-3.93-3.27s-3.57,1.38-3.93,3.27c-1.1,0.48-1.95,1.25-2.47,2.18H2.85
	c-0.31,0-0.54,0.24-0.54,0.54v28.69c0,0.31,0.24,0.54,0.54,0.54h22.67c0.31,0,0.54-0.24,0.54-0.54V23.87l7.5-7.5
	C33.77,16.16,33.77,15.82,33.56,15.6z M11.35,4.22l0.32-0.12l0.03-0.34c0.16-1.48,1.42-2.62,2.91-2.62c1.49,0,2.74,1.13,2.9,2.63
	l0.03,0.34l0.32,0.12c1.58,0.58,2.6,1.89,2.6,3.34c0,0.57-0.46,1.02-1.02,1.02H9.77c-0.57,0-1.02-0.46-1.02-1.02
	C8.75,6.12,9.77,4.81,11.35,4.22z M24.97,34.19H3.39V6.6h4.39C7.71,6.91,7.66,7.23,7.66,7.56c0,1.17,0.95,2.11,2.11,2.11h9.68
	c1.17,0,2.11-0.95,2.11-2.11c0-0.33-0.05-0.64-0.13-0.96h3.54v9.55l-8.57,8.57c-0.08,0.08-0.12,0.16-0.14,0.27l-1.01,4.61
	c-0.04,0.19,0.01,0.37,0.14,0.5c0.1,0.11,0.24,0.16,0.39,0.16c0.03,0,0.08,0,0.11-0.01l4.64-0.98c0.11-0.02,0.2-0.08,0.27-0.15
	l4.16-4.16V34.19z M20.16,28.24l-3.67,0.76l0.81-3.63L27.56,15.1l2.87,2.87L20.16,28.24z M31.2,17.19l-2.87-2.87l1.21-1.21
	l2.87,2.87L31.2,17.19z M12.5,25.51l-4.27,4.27L6.54,28.1c-0.22-0.22-0.56-0.22-0.77,0c-0.22,0.22-0.22,0.56,0,0.77l2.07,2.07
	c0.11,0.11,0.25,0.16,0.38,0.16c0.14,0,0.28-0.05,0.38-0.16l4.66-4.66c0.22-0.22,0.22-0.56,0-0.77
	C13.06,25.29,12.71,25.29,12.5,25.51z M12.5,19.19l-4.27,4.28l-1.68-1.68c-0.22-0.22-0.56-0.22-0.77,0c-0.22,0.22-0.22,0.56,0,0.77
	l2.07,2.07c0.11,0.11,0.25,0.16,0.38,0.16c0.14,0,0.28-0.05,0.38-0.16l4.66-4.66c0.22-0.22,0.22-0.56,0-0.77
	C13.06,18.97,12.71,18.97,12.5,19.19z M12.5,12.9l-4.27,4.28L6.54,15.5c-0.22-0.22-0.56-0.22-0.77,0c-0.22,0.22-0.22,0.56,0,0.77
	l2.07,2.07c0.11,0.11,0.25,0.16,0.38,0.16c0.14,0,0.28-0.05,0.38-0.16l4.66-4.66c0.22-0.22,0.22-0.56,0-0.77
	C13.06,12.69,12.71,12.69,12.5,12.9z"/>
</svg>
