<?xml version="1.0" encoding="utf-8"?>
<!-- Generator: Adobe Illustrator 23.0.1, SVG Export Plug-In . SVG Version: 6.00 Build 0)  -->
<svg version="1.1" id="Layer_1" xmlns="http://www.w3.org/2000/svg" xmlns:xlink="http://www.w3.org/1999/xlink" x="0px" y="0px"
	 viewBox="0 0 35.82 35.96" style="enable-background:new 0 0 35.82 35.96;" xml:space="preserve">
<style type="text/css">
	.st0{fill:none;stroke:#1A1A1A;stroke-width:1.44;stroke-linecap:round;stroke-linejoin:round;stroke-miterlimit:22.9256;}
</style>
<path class="st0" d="M23.57,13.44c-0.9,3.12-3.35,5.4-5.68,5.51c-2.34-0.11-4.79-2.4-5.69-5.54l-0.44,0.07
	c-0.5,0.08-0.97-0.27-1.05-0.76l-0.43-2.78c-0.08-0.5,0.27-0.97,0.76-1.05l0.31-0.05c-0.14-0.44-0.22-0.9-0.22-1.38V6.44
	c0-2.5,2.05-4.55,4.55-4.55h0.54c-0.01-0.09,0-0.17,0.03-0.24c0.28-0.74,2.14-0.71,4.17,0.05c0.43,0.16,0.83,0.35,1.2,0.54
	c1.64,0.69,2.81,2.31,2.81,4.2v1.02c0,0.48-0.08,0.94-0.21,1.38l0.31,0.05c0.5,0.08,0.84,0.55,0.76,1.05l-0.43,2.78
	c-0.08,0.5-0.55,0.84-1.05,0.76L23.57,13.44L23.57,13.44z"/>
<line class="st0" x1="28.6" y1="32.19" x2="23.68" y2="32.19"/>
<path class="st0" d="M1.84,34.92l-0.82-7.42v-0.78c0-1.73,1.76-2.74,3.22-3.03c1.34-0.27,6.34-1.36,7.96-2.48l0.1-0.02l2.93,13.75
	l1.76-9.07l-1.49-3.84h4.81l-1.49,3.84l1.71,9.07l2.98-13.75l0.1,0.02c1.62,1.12,6.63,2.21,7.96,2.48c1.46,0.3,3.22,1.3,3.22,3.03
	v0.78l-0.82,7.42"/>
</svg>
