<?xml version="1.0" encoding="utf-8"?>
<!-- Generator: Adobe Illustrator 23.0.1, SVG Export Plug-In . SVG Version: 6.00 Build 0)  -->
<svg version="1.1" id="Layer_1" xmlns="http://www.w3.org/2000/svg" xmlns:xlink="http://www.w3.org/1999/xlink" x="0px" y="0px"
	 viewBox="0 0 1265 449" style="enable-background:new 0 0 1265 449;" xml:space="preserve">
<style type="text/css">
	.st0{fill:#FAC306;}
</style>
<path class="st0" d="M232.71,89.19c8.89-8.22,23.26-27.05,55.77-44.68c32.35-17.54,63.35-13.04,75.93-1.2
	c12.58,11.83-0.74,34.78-0.74,34.78s29.6-19.24,13.32-45.88C360.71,5.58,318.54-6.25,271.93,19.64
	C225.31,45.54,222.35,81.79,232.71,89.19z"/>
<path d="M187.98,224.11c16.75-15.49,43.82-50.96,105.07-84.16c60.95-33.05,119.35-24.58,143.04-2.27
	c23.7,22.31-1.39,65.52-1.39,65.52s55.75-36.25,25.09-86.43C429.12,66.59,349.67,44.3,261.86,93.08S168.47,210.17,187.98,224.11z"/>
<path d="M526.7,257.04c0,66.38-102.45,187.65-235.22,187.65c-31.36,0-42.86-19.86-42.86-34.5c0-91.61,190.27-141.13,262.4-142.18
	L526.7,257.04z M276.84,426.92c80.5,13.59,204.9-64.82,233.13-144.26C413.79,289.97,290.43,351.65,276.84,426.92z"/>
<path d="M164.73,183.74c0,0-82.2-67.12-121.27-55.46c-32.06,9.57-37.82,45.11-37.82,45.11s16.88-15.95,36.5-21.8
	c25.63-7.64,98.57,28.41,98.57,28.41s-68.27-16.73-99.32-7.47c-23.04,6.88-46.11,35.58-35.65,70.64
	c10.46,35.06,47.3,41.53,67.34,35.55C123.16,263.79,164.73,183.74,164.73,183.74z"/>
<path d="M670.51,307.75c1.69,3.03,2.54,6.24,2.54,9.63c0,4.46-1.38,8.47-4.14,12.03c-4.99,6.15-11.81,11.1-20.45,14.84
	c-13.55,6.15-27.98,9.23-43.31,9.23c-33.15,0-50.39-14.04-51.73-42.11c-1.43-29.5,7.71-54.94,27.4-76.33
	c18.54-22.46,40.59-33.69,66.17-33.69c21.92,0,32.88,8.65,32.88,25.93c0,19.25-8.38,34.89-25.13,46.92
	c-17.91,11.85-37.92,17.2-60.02,16.04c-1.25,6.06-1.87,11.36-1.87,15.91c0,6.06,0.98,10.43,2.94,13.1
	c7.04,9.89,15.82,14.04,26.34,12.43C639.4,329.99,655.54,322.01,670.51,307.75z M598.33,273.26c13.72,0,24.28-2.98,31.68-8.96
	c9.18-7.75,13.77-17.24,13.77-28.47c0-10.78-3.48-16.18-10.43-16.18C618.38,219.66,606.7,237.53,598.33,273.26z"/>
<path d="M801.91,307.75c1.69,3.03,2.54,6.24,2.54,9.63c0,4.46-1.38,8.47-4.14,12.03c-4.99,6.15-11.81,11.1-20.45,14.84
	c-13.55,6.15-27.99,9.23-43.31,9.23c-33.15,0-50.4-14.04-51.73-42.11c-1.43-29.5,7.7-54.94,27.4-76.33
	c18.53-22.46,40.59-33.69,66.17-33.69c21.92,0,32.89,8.65,32.89,25.93c0,19.25-8.38,34.89-25.13,46.92
	c-17.91,11.85-37.92,17.2-60.02,16.04c-1.25,6.06-1.87,11.36-1.87,15.91c0,6.06,0.98,10.43,2.94,13.1
	c7.04,9.89,15.82,14.04,26.33,12.43C770.81,329.99,786.94,322.01,801.91,307.75z M729.73,273.26c13.72,0,24.28-2.98,31.68-8.96
	c9.18-7.75,13.77-17.24,13.77-28.47c0-10.78-3.48-16.18-10.43-16.18C749.78,219.66,738.1,237.53,729.73,273.26z"/>
<path d="M862.68,354.67c-9.26,0-13.9-3.21-13.9-9.63c0-3.92,1.47-8.69,4.41-14.3c4.72-8.64,10.07-18.18,16.04-28.61l17.91-30.88
	l64.83-109.34l9.36-16.44c10.16-7.57,21.56-10.7,34.22-9.36c7.66,0.89,11.76,7.4,12.3,19.52l0.4,29.41c0,0.98,0.04,2.05,0.13,3.21
	l4.41,83.95c1.16,18.18,3.08,33.42,5.75,45.72c2.76,13.19,7.04,22.41,12.83,27.67c-10.25,7.13-21.57,10.16-33.95,9.09
	c-9.89-0.89-16-9.85-18.31-26.87c-0.98-6.15-1.87-13.64-2.68-22.46l-1.73-22.46c-3.21,2.58-7.4,3.88-12.57,3.88
	c-15.06,0.53-29.85,0.8-44.38,0.8c-5.7,2.94-9.98,7.13-12.83,12.57c-1.69,2.41-3.7,5.88-6.01,10.43l-4.28,8.82
	c-0.54,1.16-0.94,2.05-1.2,2.67c-2.41,5.88-4.01,10.47-4.82,13.77c-1.25,5.26-1.38,9.98-0.4,14.17
	C879.75,353.11,871.24,354.67,862.68,354.67z M967.09,264.31c1.07,0,2.27-0.09,3.61-0.27l3.2-0.53c-0.35-30.3-1.65-59.71-3.87-88.22
	l-47.86,89.02H967.09z"/>
<path d="M1155.3,201.88c7.67,0,11.5,4.37,11.5,13.1c0,11.76-6.28,24.73-18.85,38.9c-2.85-4.55-6.33-6.82-10.43-6.82
	c-9.8,0-19.82,9-30.07,27c-4.19,7.4-8.82,16.98-13.9,28.74l-14.04,34.35c-3.92,9.98-11.41,14.97-22.45,14.97
	c-5.26,0-12.39-0.8-21.39-2.41c4.99-12.92,9.53-25.98,13.63-39.17c3.75-11.85,6.95-23.44,9.63-34.76
	c4.9-21.03,7.35-37.03,7.35-47.99c0-7.75-0.98-13.77-2.94-18.05c11.85-5.08,21.43-7.62,28.74-7.62c9.62,0,14.43,4.63,14.43,13.9
	c0,4.9-0.84,11.54-2.54,19.92l-6.15,25.26c10.79-18.89,20.63-33.28,29.55-43.18c9.8-10.69,18.66-16.08,26.6-16.17H1155.3z"/>
<path d="M1261.56,216.99c0,14.53-7.66,21.79-22.99,21.79l-15.64-0.27c-2.76,0-4.85,0.18-6.28,0.53c-1.51,7.49-3.03,14.39-4.54,20.72
	c-1.79,7.75-3.57,15.02-5.35,21.79c-2.85,10.96-4.28,20.72-4.28,29.28c0.54,8.74,4.06,13.1,10.56,13.1c1.52,0,3.66-1.07,6.42-3.21
	c2.22-1.69,4.76-4.1,7.62-7.22c8.73-9.27,14.3-13.9,16.71-13.9c0.89,0,1.33,0.8,1.33,2.41c0,9.98-5.61,20.77-16.84,32.35
	c-11.23,11.68-21.74,17.51-31.54,17.51c-21.21,0-31.82-11.85-31.82-35.56c0-2.41,0.18-5.21,0.54-8.42l1.07-8.55
	c1.51-8.74,2.67-15.15,3.47-19.25c1.16-5.44,3.03-13.55,5.62-24.33c3.47-13.45,6.28-25.53,8.42-36.22
	c2.58-13.28,3.87-23.53,3.87-30.75c0-5.62-0.98-10.65-2.94-15.11c10.52-6.06,20.36-9.09,29.54-9.09c8.91,0,13.37,4.5,13.37,13.5
	l-3.34,21.52l-3.21,17.65h14.17c8.64,0,17.33-0.67,26.06-2.01V216.99z"/>
<path d="M573.18,290.17c-0.35-0.07-34.91-6.77-56.68-6.12l-0.51-16.72c23.74-0.72,58.92,6.13,60.41,6.43L573.18,290.17z"/>
<g>
	<g>
		<path d="M487.28,419.6l-7.71-10.01l-2.99,3.67v6.34h-2.32v-23.09h2.32v13.27h0.06l10.57-13.27h2.96l-9.14,11.27l9.14,11.82H487.28
			z"/>
		<path d="M495.67,419.6v-23.09h2.32v23.09H495.67z"/>
		<path d="M505.65,419.6v-23.09h12.63v2.1h-10.31v8.29h9.98v2.1h-9.98v8.52h10.31v2.09H505.65z M514.57,394.59l-2.68-2.29
			l-2.76,2.29h-2.83l4.52-3.9h2.06l4.46,3.9H514.57z M515.87,392.29l-1.04-1.8l6.21-3.41l0.99,1.87L515.87,392.29z"/>
		<path d="M541.7,419.6l-13.69-20.31h-0.06v20.31h-2.32v-23.09h3.12l12.89,19.16h0.06v-19.16h2.3v23.09H541.7z"/>
		<path d="M569.05,398.61v20.99h-2.32v-20.99h-5.3v-2.1h12.89v2.1H569.05z"/>
		<path d="M597.87,419.6l-3.35-7.77H583.8l-3.37,7.77h-2.41l9.86-23.09h2.59l9.92,23.09H597.87z M589.19,399.15l-4.52,10.6h8.96
			L589.19,399.15z M588.05,425.47v-3.95h2.32v3.95H588.05z"/>
		<path d="M625.97,416.54c-2.4,2.32-5.26,3.47-8.58,3.47c-3.27,0-6.11-1.15-8.53-3.44c-2.45-2.34-3.67-5.13-3.67-8.39
			c0-3.35,1.19-6.21,3.58-8.56c2.38-2.34,5.25-3.5,8.62-3.5c3.33,0,6.19,1.16,8.59,3.47c2.43,2.34,3.64,5.16,3.64,8.47
			S628.41,414.2,625.97,416.54z M624.39,401.11c-1.95-1.94-4.28-2.91-6.99-2.91c-2.74,0-5.08,0.98-7.01,2.94
			c-1.92,1.96-2.88,4.31-2.88,7.04c0,2.66,0.99,4.95,2.96,6.87c1.95,1.91,4.26,2.86,6.93,2.86c2.7,0,5.03-0.96,6.98-2.88
			c1.96-1.92,2.94-4.23,2.94-6.95C627.32,405.38,626.34,403.05,624.39,401.11z"/>
		<path d="M671.65,409c-0.25,3.14-1.56,5.76-3.93,7.88c-2.35,2.09-5.1,3.14-8.27,3.14c-3.32,0-6.21-1.16-8.65-3.47
			c-2.49-2.36-3.73-5.18-3.73-8.49c0-3.33,1.23-6.16,3.7-8.5c2.42-2.29,5.3-3.44,8.65-3.44c3.81,0,6.95,1.41,9.43,4.24
			c0.67,0.75,1.17,1.52,1.49,2.32h-2.68c-0.79-1.37-1.96-2.47-3.52-3.29c-1.49-0.78-3.06-1.17-4.69-1.17
			c-2.75,0-5.11,0.96-7.08,2.88c-1.99,1.93-2.99,4.26-2.99,7.01c0,2.76,1,5.1,3.02,7.01c1.99,1.88,4.37,2.82,7.14,2.82
			c2.08,0,4.02-0.63,5.8-1.9c1.85-1.31,3.03-2.95,3.53-4.92h-12.89V409H671.65z"/>
		<path d="M678.51,419.6v-23.09h2.32v23.09H678.51z"/>
		<path d="M706.52,419.6l-3.35-7.77h-10.72l-3.37,7.77h-2.41l9.86-23.09h2.59l9.92,23.09H706.52z M697.83,399.15l-4.53,10.6h8.96
			L697.83,399.15z M695.47,395.2l-1.04-1.8l6.21-3.41l0.99,1.87L695.47,395.2z"/>
		<path d="M732.06,398.61v20.99h-2.32v-20.99h-5.3v-2.1h12.89v2.1H732.06z"/>
		<path d="M756.52,408.86c-1.29,1.29-2.91,2-4.87,2.13l6.52,8.61h-2.91l-7.83-10.45l2.5-0.01c1.05-0.03,1.87-0.14,2.47-0.34
			c2.54-0.77,3.81-2.4,3.81-4.89c0-2.04-0.84-3.52-2.53-4.43c-0.66-0.36-1.39-0.6-2.18-0.73c-0.59-0.09-1.36-0.14-2.32-0.14h-4.02
			v20.99h-2.32v-23.09h5.86c0.52,0,0.99,0.01,1.4,0.03c0.54,0.03,1.03,0.07,1.48,0.12c1.14,0.14,2.07,0.39,2.8,0.73
			c2.74,1.32,4.11,3.51,4.11,6.58C758.5,405.91,757.84,407.54,756.52,408.86z"/>
		<path d="M765.08,419.6v-23.09h2.32v23.09H765.08z M765.15,425.47v-3.95h2.32v3.95H765.15z"/>
		<path d="M785.56,411.87v-2.09h8.48v2.09H785.56z"/>
		<path d="M817.65,398.61v20.99h-2.32v-20.99h-5.3v-2.1h12.89v2.1H817.65z"/>
		<path d="M842.87,419.6v-10.83h-11.94v10.83h-2.32v-23.09h2.32v10.18h11.94v-10.18h2.3v23.09H842.87z"/>
		<path d="M870.88,419.6l-3.35-7.77h-10.72l-3.37,7.77h-2.41l9.86-23.09h2.59l9.92,23.09H870.88z M867.67,391.83
			c-0.41,1.13-1.13,1.96-2.16,2.51c-0.9,0.47-2,0.7-3.29,0.7c-1.3,0-2.39-0.23-3.28-0.7c-1.03-0.54-1.75-1.38-2.16-2.51h2.04
			c0.7,0.96,1.83,1.43,3.4,1.43c0.69,0,1.32-0.11,1.89-0.32c0.66-0.24,1.17-0.61,1.54-1.11H867.67z M862.2,399.15l-4.52,10.6h8.96
			L862.2,399.15z M862.45,392.14l-1.04-1.8l6.22-3.41l0.99,1.87L862.45,392.14z"/>
		<path d="M891.58,408.97c-0.79,0.54-1.75,0.91-2.86,1.11c-0.47,0.08-0.98,0.14-1.54,0.18c-0.45,0.03-0.96,0.05-1.55,0.05h-4.11
			v9.29h-2.32v-23.09h6.43c0.59,0,1.11,0.02,1.55,0.05c0.56,0.04,1.07,0.1,1.54,0.18c1.12,0.21,2.07,0.59,2.86,1.13
			c1.91,1.3,2.86,3.15,2.86,5.54C894.45,405.81,893.49,407.66,891.58,408.97z M889.47,399.21c-0.58-0.28-1.22-0.46-1.93-0.53
			l-0.99-0.06h-5.03v9.6h5.03l0.99-0.06c0.71-0.07,1.36-0.24,1.93-0.52c1.79-0.85,2.68-2.26,2.68-4.22S891.25,400.05,889.47,399.21z
			"/>
		<path d="M922.91,418.07c-1.35,1.3-2.99,1.95-4.91,1.95c-2.06,0-3.75-0.63-5.07-1.89c-1.33-1.26-2.01-2.92-2.04-4.98h2.32
			c0.13,3.18,1.73,4.77,4.8,4.77c1.29,0,2.38-0.44,3.27-1.31c0.91-0.89,1.37-1.99,1.37-3.28c0-1.39-0.54-2.51-1.63-3.35
			c-0.44-0.33-0.99-0.64-1.64-0.93c-0.5-0.2-1.12-0.42-1.87-0.64c-0.96-0.28-1.74-0.55-2.32-0.81c-0.77-0.33-1.41-0.69-1.9-1.1
			c-1.18-0.97-1.77-2.37-1.77-4.19c0-1.8,0.63-3.29,1.9-4.46c1.25-1.16,2.78-1.74,4.59-1.74c1.79,0,3.29,0.59,4.52,1.78
			c1.25,1.21,1.87,2.71,1.87,4.49h-2.32c0-1.14-0.4-2.12-1.19-2.94c-0.8-0.83-1.77-1.25-2.89-1.25c-1.17,0-2.15,0.38-2.96,1.14
			c-0.81,0.76-1.22,1.72-1.22,2.88c0,1.34,0.62,2.36,1.86,3.06c0.46,0.25,1.05,0.5,1.78,0.73l1.84,0.55
			c1.76,0.53,3.11,1.32,4.07,2.36c1.06,1.16,1.58,2.59,1.58,4.31C924.97,415.15,924.28,416.75,922.91,418.07z"/>
		<path d="M949.06,419.6l-3.35-7.77h-10.72l-3.37,7.77h-2.41l9.86-23.09h2.59l9.92,23.09H949.06z M940.38,399.15l-4.52,10.6h8.96
			L940.38,399.15z M938.02,395.2l-1.04-1.8l6.21-3.41l0.99,1.87L938.02,395.2z"/>
		<path d="M973.45,419.6l-13.7-20.31h-0.06v20.31h-2.32v-23.09h3.12l12.89,19.16h0.06v-19.16h2.3v23.09H973.45z"/>
		<path d="M1007.07,409c-0.25,3.14-1.56,5.76-3.93,7.88c-2.35,2.09-5.1,3.14-8.27,3.14c-3.32,0-6.21-1.16-8.65-3.47
			c-2.49-2.36-3.73-5.18-3.73-8.49c0-3.33,1.23-6.16,3.7-8.5c2.42-2.29,5.3-3.44,8.65-3.44c3.81,0,6.95,1.41,9.43,4.24
			c0.67,0.75,1.17,1.52,1.49,2.32h-2.68c-0.79-1.37-1.96-2.47-3.52-3.29c-1.49-0.78-3.06-1.17-4.69-1.17
			c-2.75,0-5.11,0.96-7.08,2.88c-1.99,1.93-2.99,4.26-2.99,7.01c0,2.76,1,5.1,3.02,7.01c1.99,1.88,4.37,2.82,7.14,2.82
			c2.08,0,4.02-0.63,5.8-1.9c1.85-1.31,3.03-2.95,3.53-4.92h-12.89V409H1007.07z"/>
		<path d="M1031.11,398.61v20.99h-2.32v-20.99h-5.3v-2.1h12.89v2.1H1031.11z"/>
		<path d="M1056.34,419.6v-10.83h-11.94v10.83h-2.32v-23.09h2.32v10.18h11.94v-10.18h2.3v23.09H1056.34z"/>
		<path d="M1082.19,399.13v11.78c0,0.86-0.07,1.68-0.2,2.45c-0.14,0.9-0.37,1.69-0.69,2.35c-1.33,2.87-3.66,4.31-6.98,4.31
			c-3.32,0-5.65-1.44-6.99-4.31c-0.3-0.66-0.53-1.44-0.69-2.35c-0.12-0.77-0.18-1.59-0.18-2.45v-14.4h2.3v14.4
			c0,0.75,0.05,1.46,0.15,2.13c0.14,0.85,0.35,1.53,0.62,2.04c1.05,1.89,2.64,2.83,4.78,2.83c2.14,0,3.73-0.95,4.77-2.83
			c0.28-0.51,0.49-1.19,0.62-2.04c0.1-0.67,0.15-1.38,0.15-2.13v-14.4h2.32v0.55c0.39-0.29,0.6-0.65,0.65-1.07h-0.99v-2.74h2.88
			v2.83c-0.07,0.5-0.2,0.91-0.38,1.24s-0.4,0.61-0.66,0.83s-0.49,0.4-0.68,0.52C1082.81,398.79,1082.54,398.95,1082.19,399.13z"/>
		<path d="M1109.25,399.07c0.19,0.16,0.38,0.33,0.56,0.52c2.43,2.34,3.64,5.16,3.64,8.47s-1.22,6.14-3.66,8.49
			c-2.4,2.32-5.26,3.47-8.58,3.47c-3.27,0-6.11-1.15-8.53-3.44c-2.45-2.34-3.67-5.13-3.67-8.39c0-3.35,1.19-6.21,3.58-8.56
			c2.38-2.34,5.25-3.5,8.62-3.5c2.39,0,4.54,0.59,6.44,1.78c0.22-0.1,0.4-0.18,0.53-0.24c0.2-0.09,0.5-0.28,0.9-0.58
			c0.4-0.29,0.62-0.66,0.67-1.08h-0.99v-2.74h2.88v2.83c-0.07,0.5-0.2,0.91-0.38,1.24s-0.4,0.61-0.66,0.83s-0.49,0.4-0.68,0.52
			C1109.78,398.79,1109.55,398.92,1109.25,399.07z M1108.22,401.11c-1.95-1.94-4.28-2.91-6.99-2.91c-2.74,0-5.08,0.98-7.01,2.94
			c-1.92,1.96-2.88,4.31-2.88,7.04c0,2.66,0.98,4.95,2.96,6.87c1.95,1.91,4.26,2.86,6.93,2.86c2.7,0,5.03-0.96,6.98-2.88
			c1.96-1.92,2.94-4.23,2.94-6.95C1111.14,405.38,1110.17,403.05,1108.22,401.11z"/>
		<path d="M1136.3,419.6l-13.7-20.31h-0.06v20.31h-2.32v-23.09h3.12l12.89,19.16h0.06v-19.16h2.3v23.09H1136.3z"/>
		<path d="M1169.92,409c-0.25,3.14-1.56,5.76-3.93,7.88c-2.35,2.09-5.1,3.14-8.27,3.14c-3.32,0-6.21-1.16-8.65-3.47
			c-2.49-2.36-3.73-5.18-3.73-8.49c0-3.33,1.23-6.16,3.7-8.5c2.42-2.29,5.3-3.44,8.65-3.44c3.81,0,6.95,1.41,9.43,4.24
			c0.67,0.75,1.17,1.52,1.49,2.32h-2.68c-0.79-1.37-1.96-2.47-3.52-3.29c-1.49-0.78-3.06-1.17-4.69-1.17
			c-2.75,0-5.11,0.96-7.08,2.88c-1.99,1.93-2.99,4.26-2.99,7.01c0,2.76,1,5.1,3.02,7.01c1.99,1.88,4.37,2.82,7.14,2.82
			c2.08,0,4.02-0.63,5.8-1.9c1.85-1.31,3.03-2.95,3.53-4.92h-12.89V409H1169.92z"/>
		<path d="M1202.79,419.6v-10.83h-11.94v10.83h-2.32v-23.09h2.32v10.18h11.94v-10.18h2.3v23.09H1202.79z"/>
		<path d="M1212.95,419.6v-23.09h2.32v23.09H1212.95z"/>
		<path d="M1222.92,419.6v-23.09h12.63v2.1h-10.31v8.29h9.98v2.1h-9.98v8.52h10.31v2.09H1222.92z M1231.85,394.59l-2.68-2.29
			l-2.76,2.29h-2.83l4.52-3.9h2.06l4.46,3.9H1231.85z M1228.08,425.47v-3.95h2.32v3.95H1228.08z"/>
		<path d="M1258.62,410.91c0,0.86-0.06,1.68-0.18,2.45c-0.15,0.9-0.38,1.69-0.69,2.35c-1.34,2.87-3.67,4.31-6.99,4.31
			c-3.32,0-5.65-1.44-6.99-4.31c-0.3-0.66-0.53-1.44-0.67-2.35c-0.13-0.77-0.2-1.59-0.2-2.45v-14.4h2.32v14.4
			c0,0.75,0.05,1.46,0.15,2.13c0.13,0.85,0.34,1.53,0.62,2.04c1.04,1.89,2.62,2.83,4.77,2.83c2.14,0,3.73-0.95,4.77-2.83
			c0.28-0.51,0.49-1.19,0.62-2.04c0.11-0.67,0.17-1.38,0.17-2.13v-14.4h2.3V410.91z"/>
	</g>
</g>
<path class="st0" d="M193.21,354.78c-6.43-3.3-24.04-8.36-24.04-35.54c0-62.72,127.54-159.95,271.81-159.95
	c59.59,0,85.72,43.91,85.72,97.75c0,3.33-0.26,6.79-0.76,10.37c0,0-9.95-0.08-14.92,0.6c0-28.23-26.14-49.13-82.59-49.13
	S237.12,262.79,193.21,354.78z"/>
</svg>
