<?xml version="1.0" encoding="utf-8"?>
<!-- Generator: Adobe Illustrator 23.0.1, SVG Export Plug-In . SVG Version: 6.00 Build 0)  -->
<svg version="1.1" id="Layer_1" xmlns="http://www.w3.org/2000/svg" xmlns:xlink="http://www.w3.org/1999/xlink" x="0px" y="0px"
	 viewBox="0 0 453.39 721.6" style="enable-background:new 0 0 453.39 721.6;" xml:space="preserve">
<style type="text/css">
	.st0{fill:#F7C22C;}
	.st1{fill:#BE3326;}
</style>
<g id="VugYBX_1_">
	<g>
		<path class="st0" d="M229.88,335.75c-6.09-0.34-11.03-1.85-13.49-7.8c-0.3-0.74-1.44-1.46-2.28-1.59
			c-5.58-0.86-8.47-3.98-8.7-9.64c-0.02-0.54-0.57-1.05-0.99-1.76c-2.06,1.91-3.87,3.6-5.68,5.29c-1.22-2.13-1.99-4.82-3.76-6.3
			c-5.57-4.69-2.79-10.96-4.37-17.01c-5.61-2.21-7.64-7.72-8.89-14.13c-7.11,1.82-9.01-4.98-13.17-8.15
			c-3.65-2.78-7.39-5.72-10.14-9.33c-2.6-3.4-3.88-7.79-5.88-11.68c-1.94-3.77-4.04-7.46-6.15-11.14c-0.17-0.31-1.01-0.55-1.35-0.4
			c-6.85,2.94-7.82-4.01-11.3-6.7c-0.35-0.27-0.28-1.1-0.63-1.32c-6.15-3.93-3.12-7.54,0.96-11.45c-1.46-1.35-2.53-3.03-4.03-3.6
			c-4.24-1.61-8.81-2.41-12.97-4.18c-3.82-1.63-7.35-4.02-10.87-6.28c-2.43-1.55-4.39-4.15-6.99-5.06c-5.96-2.08-9.25-9.3-16.75-8.4
			c-1.26,0.15-2.73-1.43-5.15-2.81c2.63-1.96,4.42-3.5,6.4-4.73c2.55-1.59,4.79-3.02,3.22-6.68c-0.48-1.12-0.4-3.53,0.21-3.86
			c1.89-1.01,4.13-1.49,6.29-1.79c1.71-0.23,3.52,0.01,5.26,0.25c1.21,0.17,2.54,0.43,3.54,1.09c4.7,3.09,6.51,2.77,9.86-1.6
			c0.87-1.13,2.42-1.72,3.5-2.72c1.06-0.97,2.11-2.04,2.85-3.26c1.81-2.99,3.54-6.04,5.08-9.18c0.57-1.17,1.09-2.96,0.58-3.88
			c-0.51-0.93-2.32-1.16-3.59-1.64c-3.54-1.32-7.15-2.46-10.55-4.06c-0.51-0.24-0.44-2.76,0.09-3.88c0.59-1.23,2.01-2.06,3.09-3.09
			c-1.85-4.53-4.44-2.07-6.17-0.53c-3.36,2.99-5.44,2.31-7.21-1.78c3.31-2.62,6.66-5.26,9.96-7.87c-0.29-0.84-0.31-1.48-0.63-1.72
			c-6.04-4.54-12.12-9.03-18.2-13.52c-0.26-0.19-0.59-0.33-0.91-0.41c-2.86-0.74-14.8,5.15-16.12,7.9
			c-0.79,1.63-1.51,3.35-2.63,4.74c-0.5,0.63-2.25,1.07-2.81,0.69c-2.91-1.98-5.62-4.25-8.67-5.26c-1.91-0.31-3.93-0.33-5.7-0.99
			c-8.3-3.1-12.76-10.29-17.69-16.96c-0.83-1.13-1.63-2.28-2.78-3.9c2.14-4.46,4.81-9.32,6.75-14.45c0.65-1.72-0.54-4.14-0.98-6.76
			c-1.46,0.51-2.59,0.9-4.03,1.39c-0.59-1.74-1.19-3.49-1.78-5.24c-0.32,0-0.64,0-0.96,0c-0.13,1.33,0.08,2.82-0.47,3.93
			c-0.56,1.13-1.82,2.52-2.89,2.62c-1.01,0.1-2.91-1.16-3.13-2.12C23.64,72.57,16.05,66.08,8.53,59.38
			c-1.98-1.77-3.02-4.59-4.55-7.03c8.18-3.45,10.55-10.85,14.38-16.86c4.71,2.28,9.23,4.22,13.46,6.64c1.85,1.05,3.45,2.89,4.6,4.73
			c2.35,3.76,5.43,3.8,8.14,0.23c1.96-2.57,4.81-4.47,6.73-7.06c1.3-1.76,1.68-4.19,2.98-7.7c1.93,2.52,3.47,4.49,4.96,6.5
			c0.91,1.23,1.75,2.51,2.62,3.78c1.02-0.99,2.36-1.8,3.01-3c3.23-6,2.98-5.87,7.5-0.64c2.92,3.38,6.49,6.2,10.6,9.07
			c0.79-7.85,1.18-15.27,11.1-15.55c2.73,7.21,3.46,7.31,10.13,2.79c1.79-1.21,4.19-1.52,6.32-2.23c1.46-0.49,3.04-0.77,4.38-1.49
			c4.87-2.61,5.11-6.44,2.22-10.68c5.2-3.96,9.83-8.1,16.62-7.91c0.73,0.02,1.54-1.41,2.26-2.23c1.01-1.15,1.97-2.34,3.7-4.41
			c3.79,5.32,7.04,9.92,10.35,14.49c0.36,0.49,1.01,0.81,1.57,1.11c3.26,1.72,6.42,3.71,9.84,5c1.78,0.67,4.2,0.57,6.05-0.04
			c4.45-1.47,8.54-3.1,11.26,2.76c0.43,0.93,3.09,1.78,4.14,1.32c5.24-2.3,10.08-3.72,14.92,0.99c1.13,1.09,3.42,0.98,6.51,1.76
			c-5.66,2.47-2.12,11.77-10.86,10.43c-1.08,4.7-3.35,9.09,2.21,12.95c1.54,1.07,1.32,4.88,1.63,7.47c0.24,1.96,0.05,3.97,0.05,5.03
			c3.78,1.49,6.97,2.81,10.21,3.99c0.81,0.29,1.89-0.11,2.67,0.22c0.89,0.37,2.14,1.11,2.27,1.86c0.9,5.15,3.75,7.3,8.95,7.92
			c1.87,0.22,3.46,2.74,5.65,4.62c0.23-0.16,1.4-0.97,2.79-1.92c0.74,1.1,1.35,2.01,1.95,2.9c4.21-0.73,8.51-2.42,12.5-1.85
			c2.94,0.42,5.47,3.77,8.18,5.82c-0.99,0.97-1.86,2.1-2.99,2.87c-5.59,3.79-12.69,6.38-16.54,11.46
			c-6.28,8.28-13.65,11.91-23.57,11.9c-1.27,0-2.89,0.84-3.76,1.82c-4.01,4.51-6.51,10.3-12.16,13.49
			c-1.15,0.65-1.19,3.53-1.45,5.42c-0.38,2.78-0.27,5.64-0.84,8.36c-0.27,1.28-1.7,3.34-2.53,3.3c-5.51-0.23-7.36,4.49-10.74,7.19
			c-2.31,1.85-5.29,2.86-7.93,4.31c-1.26,0.69-3.29,1.39-3.49,2.37c-1.51,7.67-7.82,13.69-7.37,22.01
			c0.34,6.4-2.96,11.32-6.33,16.44c-1.03,1.57,0.42,5.28,1.53,7.64c2.38,5.05,4.97,10.06,8.06,14.69c2.82,4.22,5.98,8.43,9.79,11.72
			c3.78,3.26,8.74,5.11,12.81,8.09c1.92,1.41,2.96,4.03,4.63,6.43c-3.97,3.4-2.14,7.07-0.36,11.04
			c5.18,11.53,13.47,20.08,24.28,26.37c0.85,0.49,2.23,1.02,2.33,1.69c1.29,8.66,9.05,11.78,14.43,16.83
			c4.85,4.55,10.08,8.72,15.4,12.72c2.28,1.71,5.19,2.59,7.83,3.82c0.72,0.34,1.64,0.39,2.21,0.88c1.62,1.39,3.11,2.95,4.98,4.76
			c-0.25,0.39-0.99,1.57-1.73,2.74c0.17,0.43,0.34,0.85,0.51,1.28c2.63-0.79,5.26-1.59,7.89-2.38c0.49,0.31,0.97,0.62,1.46,0.92
			c-4.92,2.82-4.24,6.22-1.96,9.45c4.87,6.89,9.72,13.81,15.02,20.36c2.12,2.62,5.68,4.03,8.03,6.52c1.12,1.18,1.08,3.57,1.32,5.44
			c0.37,2.94,0.53,5.91,0.85,9.74c-8.07,0-16.12,0.12-24.15-0.16c-0.98-0.03-2.28-2.13-2.76-3.51c-2.55-7.32-4.9-14.71-7.81-23.61
			c-2.85,8.65-5.38,15.77-7.51,23.02c-0.96,3.26-2.45,4.66-5.95,4.43c-4.32-0.29-13.07-1.21-13.1-1.77
			c0.99-0.35,2.03-0.61,2.95-1.09c1.11-0.58,2.99-1.29,3.04-2.05c0.27-3.74,1.06-7.95-0.29-11.16c-1.26-2.99-5.26-4.7-7.58-7.39
			c-3.32-3.84-6.35-7.97-9.06-12.26c-0.28-0.44,2.21-3.26,3.86-4.17C229.84,341.8,230.47,341.1,229.88,335.75z"/>
		<path class="st0" d="M212.94,586.8c-0.14-2.78-0.25-5.2-0.35-7.23c-3.59,1.24-7.41,1.45-9.14,3.45c-2.03,2.35-2.22,6.28-3.24,9.51
			c-0.59,1.87-1.22,3.72-1.91,5.56c-0.61,1.63-1.9,3.24-1.86,4.84c0.09,3.99-1.31,5.75-6.07,4.33c0.38,2.4,0.76,4.09,0.9,5.8
			c0.34,4.08-4.35,7.89-7.54,5.64c-3.18-2.25-4.7-0.39-5.45,1.49c-3.52,8.82-11.92,10.6-19.32,13.08
			c-8.76,2.93-15.88,6.61-19.82,15.77c-3.17,7.38-16.53,12.23-25.38,10.53c-0.51-0.51-1.02-1.01-1.53-1.52
			c1.07-0.32,2.48-0.34,3.15-1.05c1.05-1.12,2.4-2.79,2.26-4.07c-1.52-14.14,1.45-28.04,2.3-42.04c0.13-2.2,2.98-4.32,4.77-6.3
			c1.35-1.49,3.02-2.7,4.54-4.03c-2.01-2.06-3.86-4.32-6.08-6.13c-1.55-1.26-3.86-1.59-5.37-2.88c-2.71-2.33-4.9-3.78-6.68,0.78
			c-0.2,0.51-0.93,0.82-1.43,1.25c-2.33-3.49-4.55-6.82-6.98-10.46c2.41-5.14,7.01-7.17,12.75-6.7c6.24,0.51,8.87-5.29,13.55-7.49
			c0.33-0.15-0.68-3.08-1.02-4.73c-0.23-1.16-0.92-2.95-0.45-3.38c0.94-0.84,2.53-1.03,3.89-1.25c0.56-0.09,1.3,0.33,1.83,0.71
			c4.39,3.15,8.25,3.87,9.8-0.74c4.76-1.2,8.51-1.55,11.7-3.09c4.16-2.01,5.32,0.22,6.46,3.28c0.58,1.55,1.18,3.09,1.77,4.64
			c0.46-0.11,0.93-0.23,1.39-0.34c0.69-1.43,1.39-2.85,2.39-4.92c1.98,3.48,3.33,7.61,8.48,5.87c0.57-2.8-4.48-6.31,2.45-8.58
			c-2.33-1.59-3.79-2.47-5.11-3.52c-2.57-2.04-4.98-4.29-7.62-6.24c-3.21-2.37-2.57-5.2-1.89-8.49c0.35-1.69-1.03-3.66-1.25-5.56
			c-0.14-1.24-0.06-3.13,0.71-3.75c2.42-1.92,5.22-3.38,8.84-5.62c1.49,0.47,4.51,1.16,7.32,2.35c6.46,2.72,6.5,2.83,8.17-3.73
			c0.46-1.8,0.26-3.77,0.4-6.37c1.39-0.06,3.14-0.31,4.86-0.18c3.83,0.28,7.31,0.19,9.06-4.18c0.3-0.74,2.17-1.65,2.71-1.36
			c3.57,1.94,5.62-0.4,7.88-2.39c2.13-1.87,4.14-3.91,6.44-5.53c3.33-2.35,6.85-4.07,10.04,1.82c1.92-2.19,4.19-3.71,4.88-5.77
			c2.25-6.69,3.68-13.68,0.13-20.35c-2.47-4.65-2.35-8.89,0.32-13.2c4.94-7.97,4.85-16.03,0.52-24.19
			c-2.61-4.92-5.35-9.78-7.73-14.81c-0.64-1.36-0.82-3.57-0.15-4.8c2.28-4.18,0.08-9.6,4.8-13.42c2.49-2.01,2.75-6.78,4.01-10.29
			c8.15,4.06,8.15,4.06,5.55,12.16c-2.02,6.3-4.05,12.6-6.52,20.33c6.79-4.92,12.65-8.84,18.12-13.25
			c3.68-2.97,6.46-3.39,10.33-0.12c5.3,4.48,11.2,8.24,17.69,11.76c-2.31-7.21-4.43-14.48-7-21.59c-1.2-3.3-0.44-5.07,2.38-6.96
			c6.06-4.06,11.89-8.47,17.71-12.66c3.97,3.81,5.89,7.97,5.21,13.2c-0.16,1.27,0.17,2.66,0.53,3.92
			c2.67,9.18,5.48,18.32,8.06,27.53c0.41,1.45,0.5,4.04-0.3,4.6c-3.35,2.34-2.17,4.67-0.81,7.34c1.19,2.34,2.83,4.79-0.65,6.86
			c-0.5,0.3-0.79,2.02-0.41,2.56c4.14,6.01,1.9,14.76,8.54,19.74c0.52,0.39,0.21,2.37-0.22,3.4c-0.43,1.01-1.54,1.71-2.3,2.6
			c-2.15,2.51-5.46,4.8-6.04,7.64c-0.49,2.36,2.3,5.36,3.5,8.13c0.41,0.94,0.39,2.06,0.82,4.58c-2.75-2.08-4.38-3.31-6-4.54
			c2.62,8.86,1.73,17.17-1.68,25.6c4.13,5.88,3.4,8.64-2.85,12.68c-1.46,0.94-2.05,3.46-2.68,5.38c-0.92,2.79-0.95,6.34-5.58,4.56
			c-0.51-0.2-1.46,0.01-1.87,0.39c-3.61,3.38-7.86,5.6-12.19,7.92c-3.92,2.1-7.06,5.66-11.23,9.15c-5.21-1.56-9.23,0.5-10.74,7.04
			c-0.22,0.94-1.8,2.15-2.82,2.23c-7.24,0.56-12.74,4.9-18.81,8.11c-4.56,2.41-9.53,4.01-14.24,6.15
			C216.69,584.07,215.09,585.41,212.94,586.8z"/>
		<path class="st0" d="M237.28,111.3c-1.95,5.22-3.92,10.63-6.05,15.98c-0.19,0.47-1.74,0.99-2.05,0.74
			c-2.34-1.9-4.63-3.89-6.66-6.1c-0.32-0.35,0.42-2.45,1.17-2.91C228.08,116.33,232.63,113.9,237.28,111.3z"/>
		<path class="st0" d="M409.68,690.58c7.82,4.81,5.6,11.54-4.6,17.65C403.35,701.33,404.97,695.59,409.68,690.58z"/>
		<path class="st0" d="M83.95,603.44c-4.02-5.95,0.22-14.99-9.31-17.5c3.42-1.95,5.79-3.3,8.56-4.88c3.02,1.31,3.37,4.31,3.15,7.57
			c-0.26,3.79-0.43,7.58-0.82,11.36C85.42,601,84.66,601.94,83.95,603.44z"/>
		<path class="st0" d="M317.32,715.27c-1-6.88,1.16-11.17,6.24-12.53c4.15-1.11,8.62-1.9,11.96,3.23
			C326.61,703.76,321.36,708.21,317.32,715.27z"/>
		<path class="st0" d="M365.88,685.5c-3.42-0.04-9.82-4.75-10.37-8.12c3.33-0.4,6.63-0.8,10.37-1.25
			C365.88,679.7,365.88,682.59,365.88,685.5z"/>
		<path class="st0" d="M415.28,316.62c-0.86,1.05-1.76,2.14-2.75,3.34c-1.13-1.77-2.13-3.33-3.88-6.08c-0.72,2.66-0.73,4.11-1.44,5
			c-0.87,1.09-2.24,1.94-3.57,2.44c-0.58,0.22-1.58-0.68-2.39-1.07c0.92-0.84,1.87-1.67,2.77-2.54c0.58-0.56,1.14-1.15,1.64-1.77
			C409.6,311.07,410.65,311.11,415.28,316.62z"/>
		<path class="st0" d="M404.46,331.73c3.37-5.43,7.21-6.38,12.3-2.75C413.08,332.09,409.51,333.83,404.46,331.73z"/>
		<path class="st0" d="M338.16,685.05c2.21,2.49,5.31,4.57,1.75,7.46c-1.31,1.06-5.39,1.22-5.82,0.46
			C331.79,688.83,335.89,687.55,338.16,685.05z"/>
		<path class="st0" d="M212.99,121.79c1.59,2.04,3.34,3.33,3.36,4.64c0.01,0.97-2.41,2.95-3.42,2.75c-1.72-0.34-3.18-2.02-4.76-3.13
			C209.49,124.88,210.79,123.73,212.99,121.79z"/>
		<path class="st0" d="M199.26,657.95c-1.41,0-2.16,0.01-2.92,0c-1.99-0.04-3.98-0.1-5.97-0.16c1.54-2.03,3.07-4.06,4.96-6.56
			C196.92,653.93,197.85,655.52,199.26,657.95z"/>
		<path class="st0" d="M249.47,115.85c-3.44,1.17-5.92,2.01-8.4,2.85c-0.12-1.24-0.79-3.17-0.25-3.61
			C242.91,113.37,245.35,111.71,249.47,115.85z"/>
		<path class="st0" d="M443.99,340.38c-1.19-0.89-2.21-1.65-4.22-3.15c3.43-1.28,6.08-2.27,8.74-3.26c0.3,0.5,0.6,1,0.89,1.49
			C447.66,337.05,445.91,338.64,443.99,340.38z"/>
		<path class="st0" d="M431.45,297.15c1.63-3.98,1.85-3.97,8.4,1.89c-1.31,0-2.69,0.24-3.93-0.06
			C434.37,298.6,432.94,297.78,431.45,297.15z"/>
		<path class="st0" d="M429.03,325c-3.24,0.57-5.63,0.99-8.03,1.4c-0.06-0.74-0.44-1.92-0.13-2.15
			C423.06,322.65,425.37,320.72,429.03,325z"/>
	</g>
</g>
<path class="st0" d="M235.04,396.8l-4.16-13.53l23.19-25.8l5.09-3.89c0,0,9.28,6.59,10.18,7.78s8.38,12.27,8.38,12.27l3.59,4.49
	l10.87,6.74l1.71,5.23v25.44l-3.29,15.86L284,446.98c0,0,0.3-5.7-10.18-7.2c-10.48-1.5-16.16-0.3-25.44-0.6
	c-9.28-0.3-12.27-1.5-12.27-1.5l-2.03-8.4l2.63-16.44L235.04,396.8z"/>
<circle class="st1" cx="141.37" cy="102.8" r="13.18"/>
<circle class="st1" cx="254.07" cy="357.47" r="13.18"/>
<circle class="st1" cx="199.26" cy="555.64" r="13.18"/>
</svg>
