<?xml version="1.0" encoding="utf-8"?>
<!-- Generator: Adobe Illustrator 23.0.1, SVG Export Plug-In . SVG Version: 6.00 Build 0)  -->
<svg version="1.1" id="icons_1_" xmlns="http://www.w3.org/2000/svg" xmlns:xlink="http://www.w3.org/1999/xlink" x="0px" y="0px"
	 viewBox="0 0 47 45" style="enable-background:new 0 0 47 45;" xml:space="preserve">
<style type="text/css">
	.st0{opacity:0.8;}
	.st1{fill:#F8C22E;}
</style>
<g class="st0">
	<polyline class="st1" points="44.95,13.34 2.07,13.34 2.07,15.48 44.95,15.48 	"/>
	<polygon class="st1" points="7.43,7.98 7.43,11.2 14.94,11.2 14.94,7.98 12.79,7.98 12.79,9.05 9.58,9.05 9.58,7.98 	"/>
	<polygon class="st1" points="32.09,7.98 32.09,11.2 39.59,11.2 39.59,7.98 37.45,7.98 37.45,9.05 34.23,9.05 34.23,7.98 	"/>
	<path class="st1" d="M8.5,5.84V4.76H4.22C2.44,4.77,1,6.2,1,7.98v33.23c0,1.78,1.44,3.22,3.22,3.22h38.59
		c1.78,0,3.22-1.44,3.22-3.22V7.98c0-1.78-1.44-3.22-3.22-3.22h-3.22l0-2.14c0-1.18-0.96-2.14-2.14-2.14h-3.22
		c-1.18,0-2.14,0.96-2.14,2.14v2.14H14.94l0-2.14c0-1.18-0.96-2.14-2.14-2.14H9.58c-1.18,0-2.14,0.96-2.14,2.14v3.22H8.5V4.76V5.84
		h1.07V2.62l0,0h3.22v0v4.29h21.44V2.62l0,0h3.22v0v4.29h5.36c0.59,0,1.07,0.48,1.07,1.07v33.23c0,0.59-0.48,1.07-1.07,1.07H4.22
		c-0.59,0-1.07-0.48-1.07-1.07V7.98c0-0.59,0.48-1.07,1.07-1.07l5.36,0V5.84H8.5z"/>
	<polyline class="st1" points="17.08,24.06 21.37,24.06 21.37,21.92 17.08,21.92 	"/>
	<polyline class="st1" points="25.66,24.06 29.94,24.06 29.94,21.92 25.66,21.92 	"/>
	<polyline class="st1" points="34.23,24.06 38.52,24.06 38.52,21.92 34.23,21.92 	"/>
	<polyline class="st1" points="8.5,29.42 12.79,29.42 12.79,27.28 8.5,27.28 	"/>
	<polyline class="st1" points="17.08,29.42 21.37,29.42 21.37,27.28 17.08,27.28 	"/>
	<polyline class="st1" points="25.66,29.42 29.94,29.42 29.94,27.28 25.66,27.28 	"/>
	<polyline class="st1" points="34.23,29.42 38.52,29.42 38.52,27.28 34.23,27.28 	"/>
	<polyline class="st1" points="8.5,34.78 12.79,34.78 12.79,32.64 8.5,32.64 	"/>
	<polyline class="st1" points="17.08,34.78 21.37,34.78 21.37,32.64 17.08,32.64 	"/>
	<polyline class="st1" points="25.66,34.78 29.94,34.78 29.94,32.64 25.66,32.64 	"/>
</g>
</svg>
